<svg width="32" height="32" viewBox="0 0 32 32" fill="none" xmlns="http://www.w3.org/2000/svg">
<defs>
<linearGradient id="paint0_linear_1_2" x1="0" y1="16" x2="32" y2="16" gradientUnits="userSpaceOnUse">
<stop stop-color="#8A2BE2"/>
<stop offset="1" stop-color="#4B0082"/>
</linearGradient>
</defs>
<path d="M16 4C10.5 4 6 8.5 6 14V18C6 23.5 10.5 28 16 28C21.5 28 26 23.5 26 18V14C26 8.5 21.5 4 16 4ZM16 6C20.4 6 24 9.6 24 14V18C24 22.4 20.4 26 16 26C11.6 26 8 22.4 8 18V14C8 9.6 11.6 6 16 6ZM16 11C14.7 11 13.5 11.4 12.6 12.2C11.7 13 11.2 14.1 11.2 15.3C11.2 16.5 11.7 17.6 12.6 18.4C13.5 19.2 14.7 19.6 16 19.6C17.3 19.6 18.5 19.2 19.4 18.4C20.3 17.6 20.8 16.5 20.8 15.3C20.8 14.1 20.3 13 19.4 12.2C18.5 11.4 17.3 11 16 11ZM16 13C17.5 13 18.8 13.5 19.6 14.3C20.4 15.1 20.8 16.2 20.8 17.4C20.8 18.6 20.4 19.7 19.6 20.5C18.8 21.3 17.5 21.8 16 21.8C14.5 21.8 13.2 21.3 12.4 20.5C11.6 19.7 11.2 18.6 11.2 17.4C11.2 16.2 11.6 15.1 12.4 14.3C13.2 13.5 14.5 13 16 13Z" fill="url(#paint0_linear_1_2)"/>
</svg>